# xmcd
#
# Track frame offsets:
#	150
#	16415
#	33890
#	49300
#	62577
#	74345
#	91092
#	108130
#	123005
#	136895
#	152142
#	163492
#	178242
#	194310
#	216007
#	236955
#	261515
#
# Disc length: 3664
#
# Revision: 3
# Processed by: cddbd v1.5.1PL0 Copyright (c) Steve Scherf et al.
# Submitted via: EasyCD2 v3.00 - Copyright (c) 1997 Greg Leichner
# Normalized: r1:TSWAP
#
DISCID=f20e4e11
DTITLE=Soul Music Collection - 8. - La Musica Nera Conquista Il Mondo
DYEAR=1900
DGENRE=
TTITLE0=Earth, Wind and Fire - September
TTITLE1=Ohio Players - Fire
TTITLE2=Harold Melvin and The Bluenotes - If You Don't Know Me By Now
TTITLE3=Dionne Warwick - Walk On By
TTITLE4=Bobby Womack - Lookin' For A Love
TTITLE5=Al Green - Take Me To The River
TTITLE6=The Stylistics - Betcha Be Golly Now
TTITLE7=David Ruffin - Walk Away From Love
TTITLE8=Earth, Wind and Fire - Mighty, Mighty
TTITLE9=Dionne Warwick - Don't Make Me Over
TTITLE10=Brenton Wood - The Oogum Boogum Song
TTITLE11=Al Green - Let's Stay Together
TTITLE12=Harold Melvin and The Bluenotes - The Love I Lost
TTITLE13=Billy Paul - Me And Mrs. Jones
TTITLE14=Graham Central Station - Release Yourself
TTITLE15=The Stylistics - You Make Me Feel Brand New
TTITLE16=Dionne Warwick - Do You Know the Way To San Jose
EXTD=by David K. (Opatija City) - Croatia
EXTT0=
EXTT1=
EXTT2=
EXTT3=
EXTT4=
EXTT5=
EXTT6=
EXTT7=
EXTT8=
EXTT9=
EXTT10=
EXTT11=
EXTT12=
EXTT13=
EXTT14=
EXTT15=
EXTT16=
PLAYORDER=
